<svg xmlns="http://www.w3.org/2000/svg" xmlns:xlink="http://www.w3.org/1999/xlink" viewBox="0,0,256,256" width="512px" height="512px"><defs><linearGradient x1="24" y1="6.121" x2="24" y2="42.039" gradientUnits="userSpaceOnUse" id="color-1"><stop offset="0" stop-color="#eb0f33"></stop><stop offset="1" stop-color="#ac0824"></stop></linearGradient></defs><g fill="none" fill-rule="nonzero" stroke="none" stroke-width="1" stroke-linecap="butt" stroke-linejoin="miter" stroke-miterlimit="10" stroke-dasharray="" stroke-dashoffset="0" font-family="none" font-weight="none" font-size="none" text-anchor="none" style="mix-blend-mode: normal"><g transform="scale(5.33333,5.33333)"><path d="M40,42h-32c-1.1,0 -2,-0.9 -2,-2v-32c0,-1.1 0.9,-2 2,-2h32c1.1,0 2,0.9 2,2v32c0,1.1 -0.9,2 -2,2z" fill="url(#color-1)"></path><path d="M37.02,20.243v-0.743c0,-0.827 -0.673,-1.5 -1.5,-1.5h-2.927c-0.827,0 -1.5,0.673 -1.5,1.5v0.529c-0.58,-1.089 -1.797,-2.029 -4.284,-2.029h-3.029c-0.827,0 -1.5,0.673 -1.5,1.5v7.729l-2.929,-8.234c-0.212,-0.595 -0.78,-0.995 -1.412,-0.995h-1.969c-0.627,0 -1.193,0.396 -1.409,0.987l-3.336,9.164c-0.154,0.422 -0.093,0.893 0.165,1.261c0.257,0.368 0.679,0.588 1.129,0.588h1.537c0.658,0 1.233,-0.421 1.43,-1.047l0.373,-1.177h2.094l0.378,1.183c0.199,0.622 0.773,1.041 1.428,1.041h1.557c0.446,0 0.866,-0.218 1.124,-0.582c0.029,-0.041 0.046,-0.087 0.07,-0.13c0.265,0.426 0.733,0.712 1.27,0.712h1.252c0.827,0 1.5,-0.673 1.5,-1.5v-1.945h0.074c1.449,0 2.643,-0.395 3.549,-1.172c0.95,-0.816 1.433,-1.892 1.433,-3.196c0,-0.281 -0.021,-0.597 -0.078,-0.925c0.122,0.13 0.259,0.246 0.42,0.326v4.823c-0.495,0.245 -0.837,0.756 -0.837,1.345v0.744c0,0.827 0.673,1.5 1.5,1.5h2.927c0.827,0 1.5,-0.673 1.5,-1.5v-0.743c0,-0.589 -0.342,-1.1 -0.837,-1.345v-4.823c0.495,-0.246 0.837,-0.756 0.837,-1.346zM27.217,22.271c0,0.33 0,0.553 -0.685,0.574v-1.114c0.685,0.02 0.685,0.23 0.685,0.54z" fill="#000000" opacity="0.05"></path><path d="M18.881,19.164c-0.142,-0.397 -0.521,-0.664 -0.941,-0.664h-1.969c-0.418,0 -0.796,0.264 -0.939,0.658l-3.336,9.165c-0.098,0.269 -0.059,0.568 0.104,0.803c0.164,0.234 0.433,0.374 0.719,0.374h1.537c0.438,0 0.822,-0.281 0.953,-0.698l0.483,-1.526h2.825l0.488,1.53c0.134,0.416 0.517,0.695 0.953,0.695h1.557c0.284,0 0.552,-0.139 0.716,-0.371c0.164,-0.232 0.205,-0.531 0.109,-0.799zM17.481,24.546h-1.188l0.596,-1.856z" fill="#000000" opacity="0.07"></path><path d="M26.809,18.5h-3.029c-0.552,0 -1,0.449 -1,1v9c0,0.551 0.448,1 1,1h1.252c0.552,0 1,-0.449 1,-1v-2.445h0.574c1.326,0 2.41,-0.354 3.224,-1.052c0.835,-0.717 1.258,-1.665 1.258,-2.816c0,-1.682 -0.742,-3.687 -4.279,-3.687zM27.717,22.271c0,0.559 -0.157,1.076 -1.299,1.076h-0.386v-2.117h0.386c1.142,-0.001 1.299,0.5 1.299,1.041z" fill="#000000" opacity="0.07"></path><path d="M36.52,20.243v-0.743c0,-0.551 -0.448,-1 -1,-1h-2.927c-0.552,0 -1,0.449 -1,1v0.743c0,0.496 0.363,0.909 0.837,0.987v5.54c-0.474,0.078 -0.837,0.491 -0.837,0.987v0.743c0,0.551 0.448,1 1,1h2.927c0.552,0 1,-0.449 1,-1v-0.743c0,-0.496 -0.363,-0.909 -0.837,-0.987v-5.54c0.473,-0.078 0.837,-0.491 0.837,-0.987zM36.019,19.5v0v0z" fill="#000000" opacity="0.07"></path><path d="M21.315,29h-1.557c-0.217,0 -0.41,-0.141 -0.476,-0.348l-0.6,-1.877h-3.556l-0.594,1.875c-0.066,0.209 -0.259,0.35 -0.477,0.35h-1.537c-0.261,0 -0.443,-0.26 -0.354,-0.505l3.337,-9.166c0.072,-0.198 0.26,-0.329 0.47,-0.329h1.968c0.212,0 0.4,0.133 0.471,0.332l3.26,9.165c0.087,0.246 -0.095,0.503 -0.355,0.503zM18.166,25.046l-1.074,-3.361c-0.079,-0.251 -0.135,-0.551 -0.167,-0.9h-0.056c-0.023,0.293 -0.081,0.583 -0.174,0.872l-1.088,3.389z" fill="#ffffff"></path><path d="M25.532,25.555v2.945c0,0.276 -0.224,0.5 -0.5,0.5h-1.252c-0.276,0 -0.5,-0.224 -0.5,-0.5v-9c0,-0.276 0.224,-0.5 0.5,-0.5h3.029c2.52,0 3.78,1.062 3.78,3.187c0,1.004 -0.361,1.817 -1.084,2.437c-0.723,0.62 -1.689,0.931 -2.897,0.931zM25.532,20.729v3.117h0.886c1.199,0 1.799,-0.525 1.799,-1.576c0,-1.027 -0.6,-1.541 -1.799,-1.541z" fill="#ffffff"></path><path d="M36.019,19.5v0.743c0,0.276 -0.224,0.5 -0.5,0.5h-0.337v6.513h0.337c0.276,0 0.5,0.224 0.5,0.5v0.744c0,0.276 -0.224,0.5 -0.5,0.5h-2.926c-0.276,0 -0.5,-0.224 -0.5,-0.5v-0.743c0,-0.276 0.224,-0.5 0.5,-0.5h0.337v-6.513h-0.337c-0.276,0 -0.5,-0.224 -0.5,-0.5v-0.744c0,-0.276 0.224,-0.5 0.5,-0.5h2.926c0.276,0 0.5,0.224 0.5,0.5z" fill="#ffffff"></path></g></g></svg>